<?xml version="1.0" encoding="UTF-8"?>
<svg width="48px" height="48px" viewBox="0 0 48 48" version="1.1" xmlns="http://www.w3.org/2000/svg" xmlns:xlink="http://www.w3.org/1999/xlink">
    <!-- Generator: Sketch 51.1 (57501) - http://www.bohemiancoding.com/sketch -->
    <title>Icon-Seller-Active</title>
    <desc>Created with Sketch.</desc>
    <defs></defs>
    <g id="Icon-Seller-Active" stroke="none" stroke-width="1" fill="none" fill-rule="evenodd">
        <g id="Group" transform="translate(9.000000, 9.000000)" stroke="#0041FF" stroke-width="2">
            <rect id="Rectangle-12" fill="#FFFFFF" fill-rule="nonzero" x="0" y="1" width="30" height="29" rx="1"></rect>
            <path d="M7,30 C7.49209809,26.0536884 10.8584886,23 14.9381062,23 C19.0177239,23 22.3841144,26.0536884 22.8762125,30 L7,30 Z M14.9381062,20 C12.7289672,20 10.9381062,18.209139 10.9381062,16 C10.9381062,13.790861 12.7289672,12 14.9381062,12 C17.1472452,12 18.9381062,13.790861 18.9381062,16 C18.9381062,18.209139 17.1472452,20 14.9381062,20 Z" id="Combined-Shape" stroke-linecap="round" stroke-linejoin="round"></path>
            <path d="M1,0 L9,0 C9.55228475,-1.01453063e-16 10,0.44771525 10,1 L10,4.5 C10,6.98528137 7.98528137,9 5.5,9 L4.5,9 C2.01471863,9 3.04359188e-16,6.98528137 0,4.5 L0,1 C-6.76353751e-17,0.44771525 0.44771525,1.01453063e-16 1,0 Z" id="Rectangle-12" fill="#FFFFFF" fill-rule="nonzero"></path>
            <path d="M10,0 L20,0 L20,4 C20,6.76142375 17.7614237,9 15,9 L15,9 C12.2385763,9 10,6.76142375 10,4 L10,0 Z" id="Rectangle-12-Copy" fill="#FFFFFF" fill-rule="nonzero"></path>
            <path d="M21,0 L29,0 C29.5522847,-1.01453063e-16 30,0.44771525 30,1 L30,4.5 C30,6.98528137 27.9852814,9 25.5,9 L24.5,9 C22.0147186,9 20,6.98528137 20,4.5 L20,1 C20,0.44771525 20.4477153,1.01453063e-16 21,0 Z" id="Rectangle-12-Copy-2" fill="#FFFFFF" fill-rule="nonzero"></path>
        </g>
    </g>
</svg>